HIERARCHY
ROOT Hips
{
	OFFSET 0.000000 0.000000 0.000000 
	CHANNELS 6 Xposition Yposition Zposition Zrotation Yrotation Xrotation
	JOINT LeftUpLeg
	{
		OFFSET 1.363060 -1.794630 0.839290 
		CHANNELS 3 Zrotation Yrotation Xrotation
		JOINT LeftLeg
		{
			OFFSET 2.448110 -6.726130 0.000000 
			CHANNELS 3 Zrotation Yrotation Xrotation
			JOINT LeftFoot
			{
				OFFSET 2.562200 -7.039590 0.000000 
				CHANNELS 3 Zrotation Yrotation Xrotation
				JOINT LeftToeBase
				{
					OFFSET 0.157640 -0.433110 2.322550 
					CHANNELS 3 Zrotation Yrotation Xrotation
					End Site
					{
						OFFSET 0.000000 0.000000 0.000000 
					}
				}
			}
		}
	}
	JOINT RightUpLeg
	{
		OFFSET -1.305520 -1.794630 0.839290 
		CHANNELS 3 Zrotation Yrotation Xrotation
		JOINT RightLeg
		{
			OFFSET -2.542530 -6.985550 0.000000 
			CHANNELS 3 Zrotation Yrotation Xrotation
			JOINT RightFoot
			{
				OFFSET -2.568260 -7.056230 0.000000 
				CHANNELS 3 Zrotation Yrotation Xrotation
				JOINT RightToeBase
				{
					OFFSET -0.164730 -0.452590 2.363150 
					CHANNELS 3 Zrotation Yrotation Xrotation
					End Site
					{
						OFFSET 0.000000 0.000000 0.000000 
					}
				}
			}
		}
	}
	JOINT Spine
	{
		OFFSET 0.028270 2.035590 -0.193380 
		CHANNELS 3 Zrotation Yrotation Xrotation
		JOINT Spine1
		{
			OFFSET 0.056720 2.048850 -0.042750 
			CHANNELS 3 Zrotation Yrotation Xrotation
			JOINT Neck1
			{
				OFFSET -0.054170 1.746240 0.172020 
				CHANNELS 3 Zrotation Yrotation Xrotation
				JOINT Head
				{
					OFFSET 0.104070 1.761360 -0.123970 
					CHANNELS 3 Zrotation Yrotation Xrotation
					End Site
					{
						OFFSET 0.000000 0.000000 0.000000 
					}
				}
			}
			JOINT LeftArm
			{
				OFFSET 3.362410 1.200890 -0.311210 
				CHANNELS 3 Zrotation Yrotation Xrotation
				JOINT LeftForeArm
				{
					OFFSET 4.983000 -0.000000 -0.000000 
					CHANNELS 3 Zrotation Yrotation Xrotation
					JOINT LeftHand
					{
						OFFSET 3.483560 -0.000000 -0.000000 
						CHANNELS 3 Zrotation Yrotation Xrotation
						JOINT LeftHandIndex1
						{
							OFFSET 0.715260 -0.000000 -0.000000 
							CHANNELS 3 Zrotation Yrotation Xrotation
							End Site
							{
								OFFSET 0.000000 0.000000 0.000000 
							}
						}
					}
				}
			}
			JOINT RightArm
			{
				OFFSET -3.136600 1.374050 -0.404650 
				CHANNELS 3 Zrotation Yrotation Xrotation
				JOINT RightForeArm
				{
					OFFSET -5.241900 -0.000000 -0.000000 
					CHANNELS 3 Zrotation Yrotation Xrotation
					JOINT RightHand
					{
						OFFSET -3.444170 -0.000000 -0.000000 
						CHANNELS 3 Zrotation Yrotation Xrotation
						JOINT RightHandIndex1
						{
							OFFSET -0.622530 -0.000000 -0.000000 
							CHANNELS 3 Zrotation Yrotation Xrotation
							End Site
							{
								OFFSET 0.000000 0.000000 0.000000 
							}
						}
					}
				}
			}
		}
	}
}
MOTION
Frames: 18
Frame Time: 0.041667
15.234786 17.854853 -5.925085 103.122983 -85.343231 -95.522962 -19.095331 -3.224661 -13.619436 1.088278 7.700112 23.726265 0.467245 0.584769 -9.147681 0.091900 1.955300 5.382100 7.177987 8.989676 -24.797135 -7.321423 -14.799594 49.045229 1.424059 -12.838208 -11.478231 -0.159200 -2.570800 7.086000 -0.936352 2.070363 0.234937 -1.573961 0.679344 -0.641846 5.125802 -8.702587 15.378287 1.762000 -4.274500 8.104100 -84.032082 5.168213 10.374654 15.152556 -17.005172 -2.264402 -1.181654 -1.424874 1.264492 -7.125000 0.000000 0.000000 80.271496 1.137335 -14.885440 -18.768537 27.445639 -4.544017 0.695729 -0.791601 -3.500537 7.125000 0.000000 0.000000 
15.215597 17.852210 -5.919505 100.775553 -85.269652 -93.393259 -19.220107 -3.344763 -13.170929 1.051275 7.635978 23.504694 0.490583 0.500504 -9.200066 0.121200 2.244800 6.182700 7.018817 8.847510 -25.305899 -7.548203 -14.985045 49.911717 1.239533 -11.916646 -11.942566 -0.233400 -3.109400 8.583500 -0.942677 2.025665 0.297745 -1.485550 0.661283 -0.736302 5.141596 -8.875406 15.429552 1.757300 -4.357500 8.117700 -83.937993 5.058733 9.949187 14.968903 -16.744076 -2.188375 -1.176342 -1.447322 1.846145 -7.125000 0.000000 0.000000 79.747262 1.502687 -14.161665 -19.280899 28.098551 -4.794893 0.708940 -0.762092 -4.654514 7.125000 0.000000 0.000000 
15.196407 17.851427 -5.911672 99.974274 -85.009407 -92.555654 -19.546338 -3.535510 -12.982121 1.032202 7.581375 23.359246 0.538373 0.331864 -9.347189 0.302100 3.533700 9.768400 6.594287 8.930373 -26.063199 -7.715582 -15.116290 50.537908 1.124335 -11.300227 -12.100749 -0.297600 -3.507800 9.695800 -1.048764 1.946392 0.263397 -1.364570 0.621555 -0.780832 4.914448 -8.751487 15.748685 1.620500 -4.285700 8.250200 -83.835910 5.013005 9.652193 14.813533 -16.532295 -2.129782 -1.235917 -1.433781 1.631233 -7.125000 0.000000 0.000000 79.321355 1.904792 -13.226564 -19.841422 28.797304 -5.077774 0.717609 -0.727507 -5.578793 7.125000 0.000000 0.000000 
15.181134 17.852014 -5.902763 98.950820 -84.891831 -91.368927 -19.724541 -3.691904 -12.959356 1.007816 7.525751 23.204228 0.548874 0.304830 -9.424512 0.454500 4.324900 11.992400 6.318887 9.079270 -26.900748 -7.862128 -15.214677 51.062628 1.069172 -10.966255 -12.044438 -0.304200 -3.546200 9.803400 -1.139575 1.904437 0.170070 -1.426161 0.601972 -0.818067 5.034344 -8.708515 16.153905 1.672600 -4.254900 8.455200 -83.740313 4.848507 9.330294 14.622649 -16.262480 -2.059682 -1.303434 -1.399464 1.538894 -7.125000 0.000000 0.000000 78.886608 2.668799 -13.186154 -20.089459 29.112822 -5.203778 0.718228 -0.722313 -5.846306 7.125000 0.000000 0.000000 
15.167525 17.854266 -5.905112 95.818292 -84.806165 -88.161463 -19.817467 -3.721201 -12.960694 0.988718 7.494990 23.098016 0.491350 0.483408 -9.199975 0.210600 2.954300 8.151600 6.156512 9.148915 -27.544074 -7.954609 -15.264881 51.391757 0.972906 -10.438038 -12.216086 -0.379700 -3.957200 10.956300 -1.202373 1.815718 0.063505 -1.475362 0.566620 -0.937495 5.456960 -8.830338 16.336916 1.899500 -4.317000 8.550100 -83.626114 4.652935 8.396161 14.405813 -15.963843 -1.974431 -1.320846 -1.371199 3.111007 -7.125000 0.000000 0.000000 78.367888 3.615092 -13.732708 -20.040231 29.069580 -5.177674 0.710767 -0.736946 -5.565417 7.125000 0.000000 0.000000 
15.148042 17.850545 -5.912162 95.022362 -84.541541 -87.360180 -20.092711 -3.636226 -12.933737 0.987726 7.482643 23.072319 0.468210 0.566464 -9.168179 0.085900 1.890800 5.203900 5.842726 9.291960 -28.087739 -7.992155 -15.283488 51.516163 0.928917 -10.067360 -11.900430 -0.265600 -3.315200 9.157600 -1.222859 1.755623 0.008799 -1.266857 0.540474 -1.037344 5.648449 -8.883672 16.350130 2.013000 -4.352600 8.531300 -83.551001 4.529757 7.500227 14.185089 -15.655684 -1.890423 -1.334930 -1.323510 4.479845 -7.125000 0.000000 0.000000 77.742805 4.069879 -12.977481 -20.392400 29.499197 -5.356201 0.725995 -0.718249 -6.103146 7.125000 0.000000 0.000000 
15.122586 17.845552 -5.907658 95.470807 -84.606107 -87.832862 -20.059545 -3.613489 -12.800546 0.980640 7.474512 23.037017 0.477017 0.562811 -9.284547 0.145500 2.458300 6.774100 5.906202 9.429101 -28.511459 -7.979424 -15.255247 51.433988 0.995551 -10.260236 -11.184264 -0.073500 -1.748900 4.812300 -1.175549 1.792378 0.042246 -1.239423 0.558680 -1.006193 5.465443 -8.895716 16.328551 1.927900 -4.367000 8.488500 -83.395961 4.532914 7.913952 14.081566 -15.504325 -1.860599 -1.364081 -1.323939 3.774138 -7.125000 0.000000 0.000000 77.237965 4.485998 -12.156169 -20.991776 30.223472 -5.668056 0.745566 -0.692289 -6.836202 7.125000 0.000000 0.000000 
15.097228 17.848979 -5.907266 93.730775 -84.974731 -86.104991 -19.653569 -3.633284 -12.677820 0.962270 7.468045 22.962459 0.496619 0.453812 -9.138563 0.232700 3.105000 8.571200 6.346518 9.460811 -28.868954 -7.922548 -15.178222 51.188531 1.039188 -10.440024 -10.918430 -0.025500 -1.030400 2.832500 -1.074343 1.820443 0.084994 -1.323011 0.578136 -0.961757 5.395943 -8.977829 16.417921 1.878400 -4.401000 8.538200 -83.142047 4.534003 8.723025 14.043235 -15.446892 -1.856525 -1.372885 -1.339665 2.609951 -7.125000 0.000000 0.000000 76.780230 5.532388 -12.719279 -21.130552 30.409485 -5.742570 0.736200 -0.702578 -6.665732 7.125000 0.000000 0.000000 
15.072164 17.849860 -5.916274 91.427883 -84.927391 -83.706430 -19.666141 -3.729616 -12.639486 0.951558 7.447225 22.886522 0.539012 0.240527 -9.005019 0.284300 3.429300 9.476400 6.303135 9.490097 -29.361344 -7.820031 -15.081399 50.802054 1.034516 -10.395139 -10.938259 -0.021500 -0.947700 2.605000 -1.048338 1.879043 0.105042 -1.153717 0.607972 -0.944712 5.543960 -9.247443 16.454852 1.907100 -4.511300 8.600100 -83.077904 4.137246 7.788819 13.876771 -15.206885 -1.792087 -1.374891 -1.279575 3.545745 -7.125000 0.000000 0.000000 76.211827 6.545040 -13.398649 -21.196021 30.507387 -5.778406 0.720993 -0.708962 -6.560585 7.125000 0.000000 0.000000 
15.040541 17.843790 -5.915099 89.122675 -84.673373 -81.248883 -19.932686 -3.932039 -12.583657 0.940230 7.417685 22.805856 0.563461 0.178127 -9.188788 0.274800 3.371900 9.316100 5.959172 9.502408 -29.849553 -7.675473 -14.960911 50.267954 0.996062 -10.084139 -10.770053 -0.029900 -1.115400 3.066400 -1.079237 1.858564 0.088989 -1.033685 0.595729 -0.867411 5.729937 -9.481732 16.352771 1.983700 -4.620900 8.577300 -83.179061 3.710796 6.174519 13.704467 -14.969356 -1.719665 -1.371221 -1.250328 5.203143 -7.125000 0.000000 0.000000 75.533506 7.238324 -13.183141 -21.410317 30.761132 -5.888405 0.734049 -0.691730 -6.963892 7.125000 0.000000 0.000000 
15.006959 17.842811 -5.905406 86.717725 -84.817186 -78.848539 -19.770540 -3.874602 -12.475585 0.923251 7.406360 22.726238 0.599427 0.052276 -9.252708 0.283400 3.423700 9.460700 6.091865 9.552684 -30.035717 -7.499643 -14.797180 49.591409 0.992616 -9.942712 -10.454951 -0.020400 -0.922000 2.534300 -1.074378 1.760894 0.029293 -1.264070 0.554572 -0.885491 5.918893 -9.492986 16.403679 2.101700 -4.636500 8.593600 -83.127239 3.615405 5.831312 13.591560 -14.814003 -1.679504 -1.369859 -1.282752 5.373433 -7.125000 0.000000 0.000000 74.947831 7.898289 -12.669384 -21.595600 30.974674 -5.982388 0.754248 -0.683711 -7.193180 7.125000 0.000000 0.000000 
14.982874 17.844475 -5.905210 85.365241 -85.100465 -77.543099 -19.431508 -3.713777 -12.400414 0.908432 7.400514 22.655740 0.649201 -0.177905 -9.125936 0.347300 3.786400 10.476500 6.428443 9.823152 -30.104923 -7.294663 -14.596450 48.788278 1.078912 -10.404929 -10.323097 -0.001900 -0.278100 0.764100 -1.102149 1.814470 0.029648 -1.524773 0.585713 -0.965986 5.979881 -9.518058 16.712237 2.106800 -4.632300 8.747700 -82.861587 3.438947 6.049836 13.517246 -14.717587 -1.661168 -1.393726 -1.297358 5.158554 -7.125000 0.000000 0.000000 74.665436 8.729056 -12.974881 -21.859035 31.296909 -6.123757 0.756091 -0.694709 -6.983064 7.125000 0.000000 0.000000 
14.960551 17.842517 -5.917938 85.007745 -85.187623 -77.038176 -19.269675 -3.893513 -12.393260 0.891696 7.382359 22.587384 0.633677 -0.077956 -9.240998 0.366000 3.886000 10.756100 6.480793 10.320172 -30.318278 -7.060047 -14.365654 47.875552 1.092014 -10.454073 -10.402062 -0.004900 -0.452600 1.243600 -1.080120 1.966502 0.045114 -1.425565 0.661123 -0.973619 5.943498 -9.699801 16.844125 2.028000 -4.691800 8.842400 -82.698391 3.246705 6.151927 13.542799 -14.767090 -1.674670 -1.428018 -1.303383 5.078790 -7.125000 0.000000 0.000000 74.303929 9.559734 -13.396664 -22.215802 31.724570 -6.317483 0.760543 -0.690222 -7.052407 7.125000 0.000000 0.000000 
14.929417 17.843888 -5.924596 83.722746 -85.299573 -75.713938 -19.099280 -4.156917 -12.185124 0.865894 7.361049 22.489768 0.574494 0.230435 -9.455115 0.343300 3.764700 10.415700 6.540704 10.772567 -30.334046 -6.800594 -14.106280 46.855513 1.051577 -10.125639 -10.323226 -0.012500 -0.723000 1.987000 -0.922345 1.994692 -0.013518 -1.281750 0.687054 -1.107405 6.053815 -9.895715 16.608593 2.078000 -4.790300 8.744300 -82.852990 3.279259 5.771672 13.604412 -14.860625 -1.689953 -1.415768 -1.300327 5.237477 -7.125000 0.000000 0.000000 73.600459 10.190074 -13.101268 -22.499724 32.052270 -6.470124 0.775075 -0.671953 -7.610356 7.125000 0.000000 0.000000 
14.892898 17.847021 -5.917057 81.508561 -85.489082 -73.678911 -18.893365 -4.044976 -11.846389 0.835399 7.332775 22.337510 0.569314 0.258572 -9.440027 0.316300 3.615100 9.996100 6.736537 10.984433 -30.105381 -6.517313 -13.826370 45.723727 1.103362 -10.305273 -9.995255 -0.004100 -0.413600 1.136300 -0.808966 2.006630 -0.051268 -1.432168 0.708142 -1.312968 6.256691 -10.010408 16.405269 2.209100 -4.864500 8.643100 -82.985624 3.288790 5.298572 13.610206 -14.868320 -1.683732 -1.359108 -1.283076 5.687028 -7.125000 0.000000 0.000000 72.909236 10.848235 -13.157062 -22.710460 32.303838 -6.584250 0.775921 -0.673576 -8.100191 7.125000 0.000000 0.000000 
14.855988 17.845454 -5.911770 79.547568 -85.444100 -71.795049 -18.922994 -3.668421 -11.715033 0.808769 7.283255 22.152481 0.601290 0.065286 -9.186903 0.275800 3.378000 9.332900 6.661325 11.089743 -30.026974 -6.209039 -13.526621 44.489145 1.161141 -10.522041 -9.663094 -0.002500 -0.325800 0.895100 -0.872025 2.105015 0.052389 -1.587818 0.755364 -1.259243 6.340049 -10.201760 16.380290 2.234200 -4.950600 8.668200 -82.828172 3.034303 5.686671 13.595617 -14.839977 -1.683197 -1.364866 -1.285360 5.438392 -7.125000 0.000000 0.000000 72.306652 11.666287 -13.577080 -22.973347 32.617454 -6.731675 0.768226 -0.676155 -8.565328 7.125000 0.000000 0.000000 
14.821622 17.844671 -5.921267 77.714570 -85.153975 -69.821909 -19.099148 -3.550268 -11.739471 0.780334 7.216389 21.950261 0.628150 -0.081357 -9.060504 0.233300 3.108700 8.581500 6.336625 11.278145 -30.205772 -5.890775 -13.200165 43.186966 1.203263 -10.625019 -9.269724 -0.000200 -0.083800 0.230100 -0.965559 2.038198 0.135705 -1.477053 0.713690 -1.086332 6.556667 -10.335479 16.549142 2.299900 -4.987600 8.824000 -82.676189 2.754499 6.164708 13.617545 -14.866116 -1.697730 -1.410510 -1.295112 4.658241 -7.125000 0.000000 0.000000 71.739358 12.638630 -13.443730 -23.183276 32.853369 -6.850230 0.771329 -0.662106 -8.762590 7.125000 0.000000 0.000000 
14.787355 17.853189 -5.933016 75.325421 -85.175003 -67.262668 -18.875636 -3.930532 -11.585751 0.733820 7.147849 21.707474 0.617089 -0.015323 -9.113441 0.257900 3.267000 9.023100 6.376144 11.544835 -30.344497 -5.576871 -12.841538 41.848742 1.258383 -10.786418 -8.806041 -0.000300 0.102500 -0.281600 -0.851075 1.906552 0.080489 -1.360957 0.654932 -1.068680 6.798882 -10.306016 16.652754 2.428000 -4.969400 8.900700 -82.781979 2.706398 6.281595 13.659999 -14.915074 -1.711049 -1.414377 -1.295923 4.149850 -7.125000 0.000000 0.000000 71.077044 13.654780 -13.061528 -23.150292 32.809453 -6.827144 0.781467 -0.657490 -8.712407 7.125000 0.000000 0.000000 
